<svg width="30" height="27" viewBox="0 0 30 27" fill="none" xmlns="http://www.w3.org/2000/svg">
<path id="Vector" d="M1.07143 5.51796H28.9286C29.5203 5.51796 30 5.0383 30 4.44653V1.76796C30 1.1762 29.5203 0.696533 28.9286 0.696533H1.07143C0.479665 0.696533 0 1.1762 0 1.76796V4.44653C0 5.0383 0.479665 5.51796 1.07143 5.51796ZM1.07143 16.2322H28.9286C29.5203 16.2322 30 15.7526 30 15.1608V12.4822C30 11.8905 29.5203 11.4108 28.9286 11.4108H1.07143C0.479665 11.4108 0 11.8905 0 12.4822V15.1608C0 15.7526 0.479665 16.2322 1.07143 16.2322ZM1.07143 26.9465H28.9286C29.5203 26.9465 30 26.4669 30 25.8751V23.1965C30 22.6048 29.5203 22.1251 28.9286 22.1251H1.07143C0.479665 22.1251 0 22.6048 0 23.1965V25.8751C0 26.4669 0.479665 26.9465 1.07143 26.9465Z" fill="white"/>
</svg>
